<svg width="80" height="88" viewBox="0 0 80 88" fill="none" xmlns="http://www.w3.org/2000/svg">
<path d="M30.2885 13.9304C30.9598 16.2057 32.1791 18.2815 33.8394 19.9757C35.4998 21.67 37.5505 22.931 39.8118 23.6481C41.2143 21.9122 42.199 19.8772 42.6897 17.7002C43.1804 15.5232 43.164 13.2625 42.6418 11.0928C42.1195 8.92315 41.1055 6.9026 39.6779 5.18729C38.2504 3.47199 36.4475 2.10787 34.4088 1.20035C33.9651 0.98163 33.4548 0.94028 32.9818 1.08472C32.5087 1.22917 32.1085 1.54853 31.8627 1.97776C30.7606 3.74152 30.0498 5.72123 29.7782 7.78322C29.5066 9.8452 29.6806 11.9415 30.2885 13.9304Z" fill="#545454"/>
<path d="M31.8628 6.83657C32.1086 6.40735 32.5088 6.08798 32.9818 5.94354C33.4549 5.79909 33.9652 5.84044 34.4088 6.05916C36.3058 6.91365 37.9982 8.16381 39.3725 9.72584C40.7468 11.2879 41.7713 13.1257 42.3773 15.116C42.55 15.6899 42.6863 16.2741 42.7854 16.8652C43.3275 13.6946 42.7984 10.4338 41.2816 7.59725C39.7648 4.76074 37.3467 2.51006 34.4088 1.20035C33.9652 0.98163 33.4549 0.94028 32.9818 1.08472C32.5088 1.22917 32.1086 1.54853 31.8628 1.97776C29.9969 5.01553 29.3057 8.63054 29.9193 12.1424C30.2284 10.2675 30.8877 8.46754 31.8628 6.83657Z" fill="#545454"/>
<path d="M30.2885 13.9304C30.9598 16.2057 32.1791 18.2815 33.8394 19.9757C35.4998 21.67 37.5505 22.931 39.8118 23.6481C41.2143 21.9122 42.199 19.8772 42.6897 17.7002C43.1804 15.5232 43.164 13.2625 42.6418 11.0928C42.1195 8.92315 41.1055 6.9026 39.6779 5.1873C38.2504 3.47199 36.4475 2.10787 34.4088 1.20035C33.9651 0.98163 33.4548 0.94028 32.9818 1.08472C32.5087 1.22917 32.1085 1.54853 31.8627 1.97776C30.7606 3.74152 30.0498 5.72123 29.7782 7.78322C29.5066 9.8452 29.6806 11.9415 30.2885 13.9304V13.9304Z" stroke="#45413C" stroke-width="0.5" stroke-linecap="round" stroke-linejoin="round"/>
<path d="M53.1834 21.3158C51.3064 22.7514 49.1073 23.7072 46.7771 24.1C44.4469 24.4929 42.056 24.3111 39.812 23.5703C39.7004 21.3492 40.0992 19.1321 40.9778 17.0892C41.8563 15.0462 43.1912 13.2317 44.8801 11.7849C46.569 10.3381 48.5669 9.29748 50.7205 8.7429C52.8741 8.18833 55.1261 8.13454 57.3037 8.58567C57.7881 8.67149 58.222 8.93785 58.5178 9.33101C58.8136 9.72416 58.9492 10.2149 58.8974 10.7041C58.7592 12.7786 58.1776 14.7994 57.1919 16.63C56.2062 18.4606 54.8393 20.0584 53.1834 21.3158Z" fill="#545454"/>
<path d="M45.5264 16.146C47.1715 14.9026 49.0607 14.0209 51.0704 13.5587C53.08 13.0965 55.1646 13.0642 57.1876 13.4639C57.6131 13.516 58.0094 13.7074 58.3148 14.0081C58.6453 12.9336 58.8539 11.8253 58.9367 10.7041C58.988 10.212 58.8497 9.71889 58.55 9.32525C58.2502 8.93162 57.8116 8.66712 57.3236 8.58567C55.146 8.13454 52.894 8.18833 50.7404 8.7429C48.5868 9.29748 46.5889 10.3381 44.9 11.7849C43.2112 13.2317 41.8762 15.0462 40.9977 17.0892C40.1191 19.1321 39.7203 21.3492 39.8319 23.5703C40.0263 23.5703 40.2012 23.5703 40.3955 23.7257C41.2425 20.7114 43.0425 18.0523 45.5264 16.146Z" fill="#545454"/>
<path d="M53.1834 21.3158C51.3064 22.7514 49.1073 23.7072 46.7771 24.1C44.4469 24.4929 42.056 24.3111 39.812 23.5703C39.7004 21.3492 40.0992 19.1321 40.9778 17.0892C41.8563 15.0462 43.1912 13.2317 44.8801 11.7849C46.569 10.3381 48.5669 9.29748 50.7205 8.7429C52.8741 8.18833 55.1261 8.13454 57.3037 8.58567C57.7881 8.67149 58.222 8.93785 58.5178 9.33101C58.8136 9.72416 58.9492 10.2149 58.8974 10.7041C58.7592 12.7786 58.1776 14.7994 57.1919 16.63C56.2062 18.4606 54.8393 20.0584 53.1834 21.3158Z" stroke="#45413C" stroke-width="0.5" stroke-linecap="round" stroke-linejoin="round"/>
<path d="M57.3815 20.7911C51.405 19.6687 45.2241 20.6508 39.8898 23.5704C35.401 21.0995 30.2842 20.0045 25.1773 20.4219C9.62913 21.6268 -1.23518 36.6503 1.50519 52.0624C5.39224 73.8299 31.3966 84.6359 37.5965 86.9293C38.4505 87.238 39.3856 87.238 40.2396 86.9293C47.1197 84.4221 78.4493 71.6532 78.7603 46.9315C78.9031 40.7399 76.8265 34.7014 72.9056 29.9073C68.9848 25.1132 63.4784 21.8797 57.3815 20.7911Z" fill="#545454"/>
<path d="M57.3817 20.7911C51.4051 19.6687 45.2243 20.6508 39.8899 23.5704C35.4011 21.0995 30.2843 20.0045 25.1774 20.4219C9.72642 21.6074 -0.924093 36.1255 1.29153 51.2267C1.94077 47.0667 3.58307 43.1245 6.0793 39.734C8.57553 36.3434 11.8522 33.6044 15.6316 31.749C19.4111 29.8936 23.5821 28.9764 27.7913 29.0751C32.0005 29.1739 36.1239 30.2856 39.8122 32.3162C43.9908 34.7068 48.5969 37.5249 54.6218 47.6118C54.6218 46.64 54.5052 45.6683 54.3886 44.6382C53.7823 39.0265 51.4458 33.7423 47.7029 29.5176C49.279 29.2184 50.8798 29.0687 52.484 29.0705C58.7057 29.0879 64.7188 31.3157 69.45 35.3563C74.1812 39.3968 77.3226 44.9872 78.3134 51.1296C78.5449 49.7353 78.6684 48.3253 78.6827 46.9121C78.8239 40.735 76.756 34.7102 72.8512 29.9218C68.9463 25.1334 63.4609 21.8957 57.3817 20.7911Z" fill="#989898"/>
<path d="M57.3815 20.7911C51.405 19.6687 45.2241 20.6508 39.8898 23.5704C35.401 21.0995 30.2842 20.0045 25.1773 20.4219C9.62913 21.6268 -1.23518 36.6503 1.50519 52.0624C5.39224 73.8299 31.3966 84.6359 37.5965 86.9293C38.4505 87.238 39.3856 87.238 40.2396 86.9293C47.1197 84.4221 78.4493 71.6532 78.7603 46.9315C78.9031 40.7399 76.8265 34.7014 72.9056 29.9073C68.9848 25.1132 63.4784 21.8797 57.3815 20.7911Z" stroke="#45413C" stroke-width="0.5" stroke-linecap="round" stroke-linejoin="round"/>
<path d="M48.5974 70.1762C47.7231 71.7649 46.7494 73.2968 45.6821 74.7629" stroke="#45413C" stroke-width="0.5" stroke-linecap="round" stroke-linejoin="round"/>
<path d="M39.8126 23.5702C43.8352 25.5547 47.287 28.5294 49.8437 32.2148C52.4004 35.9002 53.9779 40.1753 54.4279 44.638C55.1302 51.9722 53.834 59.3597 50.6769 66.0168" stroke="#45413C" stroke-width="0.5" stroke-linecap="round" stroke-linejoin="round"/>
</svg>
