<svg width="19" height="20" viewBox="0 0 19 20" fill="none" xmlns="http://www.w3.org/2000/svg">
<path d="M17.5 9.06834C17.04 9.06834 16.6667 8.695 16.6667 8.235C16.6667 5.8975 15.7567 3.70084 14.1042 2.0475C13.7783 1.72167 13.7783 1.195 14.1042 0.869169C14.43 0.543336 14.9567 0.543336 15.2825 0.869169C17.25 2.83667 18.3333 5.4525 18.3333 8.235C18.3333 8.695 17.96 9.06834 17.5 9.06834Z" fill="white"/>
<path d="M0.833333 9.06834C0.373333 9.06834 0 8.695 0 8.235C0 5.4525 1.08333 2.83667 3.05083 0.869169C3.37667 0.543336 3.90333 0.543336 4.22917 0.869169C4.555 1.195 4.555 1.72167 4.22917 2.0475C2.57667 3.7 1.66667 5.8975 1.66667 8.235C1.66667 8.695 1.29333 9.06834 0.833333 9.06834Z" fill="white"/>
<path d="M16.9825 14.0942C15.7225 13.0292 15 11.4725 15 9.82333V7.5C15 4.5675 12.8217 2.14 9.99999 1.73333V0.833333C9.99999 0.3725 9.62666 0 9.16666 0C8.70666 0 8.33333 0.3725 8.33333 0.833333V1.73333C5.51083 2.14 3.33333 4.5675 3.33333 7.5V9.82333C3.33333 11.4725 2.61083 13.0292 1.34333 14.1008C1.01916 14.3783 0.833328 14.7817 0.833328 15.2083C0.833328 16.0125 1.48749 16.6667 2.29166 16.6667H16.0417C16.8458 16.6667 17.5 16.0125 17.5 15.2083C17.5 14.7817 17.3142 14.3783 16.9825 14.0942Z" fill="white"/>
<path d="M9.16665 20C10.6758 20 11.9383 18.9242 12.2283 17.5H6.10498C6.39498 18.9242 7.65748 20 9.16665 20Z" fill="white"/>
</svg>
