<svg width="20" height="20" viewBox="0 0 20 20" fill="none" xmlns="http://www.w3.org/2000/svg">
<circle cx="10" cy="10" r="10" fill="white"/>
<path d="M11.2398 12.8517L11.5923 12.1543C12.1065 11.1373 12.1632 10.1153 11.7533 9.27894C11.6757 9.11976 11.577 8.97636 11.4714 8.84119C12.3693 8.45018 13 7.5614 13 6.52671C13 5.13323 11.8583 4 10.4545 4C9.0506 4 7.90893 5.13323 7.90893 6.52671C7.90893 7.02132 8.05784 7.47929 8.30603 7.86966C7.22673 8.07812 6.52034 8.658 6.43061 8.73822C5.97496 9.13681 5.86741 9.79944 6.17288 10.3199C6.37906 10.6731 6.73671 10.8941 7.12363 10.939L6.77108 11.6364C6.25688 12.6534 6.20024 13.6754 6.60943 14.5118C6.96899 15.247 7.64101 15.7467 8.50077 15.9198C8.76359 15.9728 9.03278 16 9.29879 16C10.8057 16 11.8221 15.1491 11.9334 15.0519C12.3891 14.6539 12.4979 13.9919 12.1924 13.4708C11.9856 13.1195 11.628 12.8966 11.2398 12.8517ZM10.4545 5.26336C11.157 5.26336 11.7272 5.82934 11.7272 6.52671C11.7272 7.22409 11.157 7.79007 10.4545 7.79007C9.75126 7.79007 9.1817 7.22409 9.1817 6.52671C9.1817 5.82934 9.75126 5.26336 10.4545 5.26336ZM9.29879 14.7379C9.12633 14.7379 8.94305 14.7221 8.75532 14.683C7.71038 14.472 7.27382 13.4619 7.9102 12.2023L8.54659 10.9421C8.86478 10.313 8.84569 9.91251 8.47786 9.65668C8.36267 9.57772 8.20358 9.54993 8.03939 9.54993C7.6722 9.54993 7.27509 9.68511 7.27509 9.68511C7.27509 9.68511 7.99611 9.0528 9.0646 9.0528C9.23706 9.0528 9.42098 9.06859 9.60935 9.10775C10.653 9.31874 11.0908 10.3288 10.4545 11.5884L9.81808 12.8473C9.49989 13.4777 9.51771 13.8782 9.88554 14.1328C10.0007 14.2123 10.1611 14.2395 10.3259 14.2395C10.6931 14.2395 11.0896 14.1056 11.0896 14.1056C11.0896 14.1056 10.3686 14.7379 9.29879 14.7379Z" fill="#000000"/>
</svg>
