<svg width="20" height="20" viewBox="0 0 20 20" fill="none" xmlns="http://www.w3.org/2000/svg">
<path d="M6.33706 3.35371C6.81205 3.35388 7.27833 3.48119 7.68749 3.72242L8.16308 4.00285L8.17741 4.01242C8.53204 4.24884 8.94872 4.375 9.37493 4.375C9.80114 4.375 10.2178 4.24884 10.5725 4.01242L10.5868 4.00285L11.0625 3.72242C11.4717 3.48118 11.938 3.35387 12.413 3.35371C13.0797 3.34992 13.722 3.60423 14.2054 4.0634C14.0444 3.14255 13.6243 2.28663 12.9945 1.59586C12.5352 1.09304 11.9761 0.691441 11.353 0.416674C10.7298 0.141907 10.0563 0 9.37522 0C8.69419 0 8.02063 0.141907 7.39749 0.416674C6.77434 0.691441 6.21529 1.09304 5.75597 1.59586C5.12604 2.28662 4.70592 3.14253 4.5448 4.0634C5.02818 3.60429 5.67042 3.34998 6.33706 3.35371Z" fill="white"/>
<path d="M12.4732 20L10.7698 18.2299L11.4072 16.9849C11.4072 16.9849 6.25313 15.625 6.25313 13.2505C6.25312 13.2171 6.24578 13.1841 6.23162 13.1538C6.21747 13.1236 6.19684 13.0968 6.1712 13.0754C6.14556 13.054 6.11554 13.0385 6.08325 13.03C6.05096 13.0215 6.01719 13.0202 5.98434 13.0262L2.56598 13.6476C1.84595 13.7786 1.1947 14.158 0.725781 14.7199C0.256859 15.2818 5.14862e-06 15.9904 0 16.7222L0 19.6875C0 19.7704 0.032924 19.8499 0.0915291 19.9085C0.150134 19.9671 0.22962 20 0.3125 20H2.1875C2.27038 20 2.34987 19.9671 2.40847 19.9085C2.46708 19.8499 2.5 19.7704 2.5 19.6875V17.5107C2.49896 17.4301 2.52845 17.352 2.58255 17.2922C2.63666 17.2324 2.71137 17.1952 2.79172 17.1882C2.83442 17.1853 2.87724 17.1913 2.91754 17.2057C2.95784 17.22 2.99476 17.2425 3.02601 17.2718C3.05725 17.301 3.08216 17.3364 3.09919 17.3756C3.11622 17.4149 3.125 17.4572 3.125 17.5V19.6875C3.125 19.7704 3.15792 19.8499 3.21653 19.9085C3.27513 19.9671 3.35462 20 3.4375 20H12.4732Z" fill="white"/>
<path d="M20 16.1012V14.602L18.8062 14.217L18.597 13.712L19.1696 12.5934L18.1097 11.5335L16.9912 12.1062L16.4861 11.8969L16.1012 10.7031H14.602L14.217 11.8969L13.712 12.1062L12.5934 11.5335L11.5335 12.5934L12.1062 13.712L11.8969 14.217L10.7031 14.602V16.1012L11.8969 16.4861L12.1062 16.9912L11.5335 18.1097L12.5934 19.1696L13.712 18.5969L14.217 18.8062L14.602 20H16.1012L16.4861 18.8062L16.9912 18.597L18.1097 19.1696L19.1696 18.1097L18.5969 16.9912L18.8062 16.4861L20 16.1012ZM15.3125 17.1875C14.9417 17.1875 14.5791 17.0775 14.2708 16.8715C13.9625 16.6655 13.7221 16.3726 13.5802 16.03C13.4383 15.6874 13.4012 15.3104 13.4735 14.9467C13.5459 14.583 13.7245 14.2489 13.9867 13.9867C14.2489 13.7245 14.583 13.5459 14.9467 13.4735C15.3104 13.4012 15.6874 13.4383 16.03 13.5802C16.3726 13.7221 16.6655 13.9625 16.8715 14.2708C17.0775 14.5791 17.1875 14.9417 17.1875 15.3125C17.187 15.8096 16.9892 16.2862 16.6377 16.6377C16.2862 16.9892 15.8096 17.187 15.3125 17.1875Z" fill="white"/>
<path d="M15.3125 16.5625C16.0029 16.5625 16.5625 16.0029 16.5625 15.3125C16.5625 14.6221 16.0029 14.0625 15.3125 14.0625C14.6221 14.0625 14.0625 14.6221 14.0625 15.3125C14.0625 16.0029 14.6221 16.5625 15.3125 16.5625Z" fill="white"/>
<path d="M9.37501 12.1875C8.49199 12.1874 7.63038 11.9157 6.90702 11.4092C6.18367 10.9028 5.63357 10.1861 5.33134 9.35645C5.05493 9.31158 4.79776 9.18658 4.59171 8.99695C4.38565 8.80732 4.23978 8.56139 4.17216 8.28965L4.00028 7.60215C3.95766 7.43891 3.95326 7.26805 3.9874 7.10284C4.02155 6.93762 4.09332 6.7825 4.19716 6.64953C4.31974 6.49594 4.4825 6.37935 4.66735 6.3127L4.53845 5.37735C4.52017 5.24414 4.54513 5.10858 4.60966 4.99063C4.65793 4.90232 4.71303 4.81792 4.77446 4.7382C5.38571 3.94375 6.50645 3.75121 7.36985 4.26047L7.83079 4.53238C8.28812 4.83716 8.82542 4.9998 9.37501 4.9998C9.9246 4.9998 10.4619 4.83716 10.9192 4.53238L11.3802 4.26043C12.2434 3.75117 13.3643 3.94375 13.9755 4.7382C14.0371 4.81796 14.0923 4.90243 14.1406 4.99082C14.2052 5.10878 14.2301 5.24433 14.2118 5.37754L14.0829 6.31289C14.3316 6.4031 14.5381 6.58225 14.6624 6.81576C14.7868 7.04926 14.8202 7.32056 14.7563 7.57727L14.5781 8.28977C14.5105 8.56152 14.3647 8.80745 14.1586 8.99709C13.9526 9.18672 13.6954 9.31171 13.419 9.35656C13.1167 10.1863 12.5666 10.9029 11.8432 11.4094C11.1197 11.9158 10.2581 12.1874 9.37501 12.1875Z" fill="white"/>
</svg>
